<svg width="820" height="727" viewBox="0 0 820 727" fill="none" xmlns="http://www.w3.org/2000/svg">
<path d="M49.6408 99.2814L0 49.6408L49.6408 0L99.2816 49.6408L49.6408 99.2814ZM8.55874 49.6408L49.6408 90.7226L90.7228 49.6408L49.6408 8.55874L8.55874 49.6408Z" fill="white"/>
<path d="M49.6408 212.828L0 163.187L49.6408 113.546L99.2816 163.187L49.6408 212.828ZM8.55874 163.757L49.6408 204.839L90.7228 163.757L49.6408 122.675L8.55874 163.757Z" fill="white"/>
<path d="M49.6408 326.944L0 277.303L49.6408 227.663L99.2816 277.303L49.6408 326.944ZM8.55874 277.874L49.6408 318.956L90.7228 277.874L49.6408 236.792L8.55874 277.874Z" fill="white"/>
<path d="M49.6408 441.061L0 391.42L49.6408 341.779L99.2816 391.42L49.6408 441.061ZM8.55874 391.42L49.6408 432.502L90.7228 391.42L49.6408 350.338L8.55874 391.42Z" fill="white"/>
<path d="M49.6408 555.177L0 505.537L49.6408 455.896L99.2816 505.537L49.6408 555.177ZM8.55874 505.537L49.6408 546.619L90.7228 505.537L49.6408 464.455L8.55874 505.537Z" fill="white"/>
<path d="M49.6408 669.294L0 619.653L49.6408 570.012L99.2816 619.653L49.6408 669.294ZM8.55874 619.653L49.6408 660.735L90.7228 619.653L49.6408 578.571L8.55874 619.653Z" fill="white"/>
<path d="M132.375 156.34L82.7345 106.699L132.375 57.0583L182.016 106.699L132.375 156.34ZM91.2932 106.699L132.375 147.781L173.457 106.699L132.375 65.617L91.2932 106.699Z" fill="white"/>
<path d="M132.375 269.886L82.7345 220.245L132.375 170.604L182.016 220.245L132.375 269.886ZM91.2932 220.816L132.375 261.898L173.457 220.816L132.375 179.734L91.2932 220.816Z" fill="white"/>
<path d="M132.375 384.003L82.7345 334.362L132.375 284.721L182.016 334.362L132.375 384.003ZM91.2932 334.932L132.375 376.014L173.457 334.932L132.375 293.85L91.2932 334.932Z" fill="white"/>
<path d="M132.375 498.119L82.7345 448.478L132.375 398.838L182.016 448.478L132.375 498.119ZM91.2932 448.478L132.375 489.56L173.457 448.478L132.375 407.396L91.2932 448.478Z" fill="white"/>
<path d="M132.375 612.236L82.7345 562.595L132.375 512.954L182.016 562.595L132.375 612.236ZM91.2932 562.595L132.375 603.677L173.457 562.595L132.375 521.513L91.2932 562.595Z" fill="white"/>
<path d="M132.375 726.352L82.7345 676.711L132.375 627.071L182.016 676.711L132.375 726.352ZM91.2932 676.711L132.375 717.793L173.457 676.711L132.375 635.629L91.2932 676.711Z" fill="white"/>
<path d="M209.404 99.2814L159.763 49.6408L209.404 0L259.045 49.6408L209.404 99.2814ZM167.751 49.6408L208.834 90.7226L249.916 49.6408L208.834 8.55874L167.751 49.6408Z" fill="white"/>
<path d="M209.404 212.828L159.763 163.187L209.404 113.546L259.045 163.187L209.404 212.828ZM167.751 163.757L208.834 204.839L249.916 163.757L208.834 122.675L167.751 163.757Z" fill="white"/>
<path d="M209.404 326.944L159.763 277.303L209.404 227.663L259.045 277.303L209.404 326.944ZM167.751 277.874L208.834 318.956L249.916 277.874L208.834 236.792L167.751 277.874Z" fill="white"/>
<path d="M209.404 441.061L159.763 391.42L209.404 341.779L259.045 391.42L209.404 441.061ZM167.751 391.42L208.834 432.502L249.916 391.42L208.834 350.338L167.751 391.42Z" fill="white"/>
<path d="M209.404 555.177L159.763 505.537L209.404 455.896L259.045 505.537L209.404 555.177ZM167.751 505.537L208.834 546.619L249.916 505.537L208.834 464.455L167.751 505.537Z" fill="white"/>
<path d="M209.404 669.294L159.763 619.653L209.404 570.012L259.045 619.653L209.404 669.294ZM167.751 619.653L208.834 660.735L249.916 619.653L208.834 578.571L167.751 619.653Z" fill="white"/>
<path d="M292.138 156.34L242.498 106.699L292.138 57.0583L341.779 106.699L292.138 156.34ZM250.486 106.699L291.568 147.781L332.65 106.699L291.568 65.617L250.486 106.699Z" fill="white"/>
<path d="M292.138 269.886L242.498 220.245L292.138 170.604L341.779 220.245L292.138 269.886ZM250.486 220.816L291.568 261.898L332.65 220.816L291.568 179.734L250.486 220.816Z" fill="white"/>
<path d="M292.138 384.003L242.498 334.362L292.138 284.721L341.779 334.362L292.138 384.003ZM250.486 334.932L291.568 376.014L332.65 334.932L291.568 293.85L250.486 334.932Z" fill="white"/>
<path d="M292.138 498.119L242.498 448.478L292.138 398.838L341.779 448.478L292.138 498.119ZM250.486 448.478L291.568 489.56L332.65 448.478L291.568 407.396L250.486 448.478Z" fill="white"/>
<path d="M292.138 612.236L242.498 562.595L292.138 512.954L341.779 562.595L292.138 612.236ZM250.486 562.595L291.568 603.677L332.65 562.595L291.568 521.513L250.486 562.595Z" fill="white"/>
<path d="M292.138 726.352L242.498 676.711L292.138 627.071L341.779 676.711L292.138 726.352ZM250.486 676.711L291.568 717.793L332.65 676.711L291.568 635.629L250.486 676.711Z" fill="white"/>
<path d="M368.597 99.2814L318.956 49.6408L368.597 0L418.237 49.6408L368.597 99.2814ZM326.944 49.6408L368.026 90.7226L409.108 49.6408L368.026 8.55874L326.944 49.6408Z" fill="white"/>
<path d="M368.597 212.828L318.956 163.187L368.597 113.546L418.237 163.187L368.597 212.828ZM326.944 163.757L368.026 204.839L409.108 163.757L368.026 122.675L326.944 163.757Z" fill="white"/>
<path d="M368.597 326.944L318.956 277.303L368.597 227.663L418.237 277.303L368.597 326.944ZM326.944 277.874L368.026 318.956L409.108 277.874L368.026 236.792L326.944 277.874Z" fill="white"/>
<path d="M368.597 441.061L318.956 391.42L368.597 341.779L418.237 391.42L368.597 441.061ZM326.944 391.42L368.026 432.502L409.108 391.42L368.026 350.338L326.944 391.42Z" fill="white"/>
<path d="M368.597 555.177L318.956 505.537L368.597 455.896L418.237 505.537L368.597 555.177ZM326.944 505.537L368.026 546.619L409.108 505.537L368.026 464.455L326.944 505.537Z" fill="white"/>
<path d="M368.597 669.294L318.956 619.653L368.597 570.012L418.237 619.653L368.597 669.294ZM326.944 619.653L368.026 660.735L409.108 619.653L368.026 578.571L326.944 619.653Z" fill="white"/>
<path d="M451.331 156.34L401.69 106.699L451.331 57.0583L500.972 106.699L451.331 156.34ZM409.679 106.699L450.76 147.781L491.843 106.699L450.76 65.617L409.679 106.699Z" fill="white"/>
<path d="M451.331 269.886L401.69 220.245L451.331 170.604L500.972 220.245L451.331 269.886ZM409.679 220.816L450.76 261.898L491.843 220.816L450.76 179.734L409.679 220.816Z" fill="white"/>
<path d="M451.331 384.003L401.69 334.362L451.331 284.721L500.972 334.362L451.331 384.003ZM409.679 334.932L450.76 376.014L491.843 334.932L450.76 293.85L409.679 334.932Z" fill="white"/>
<path d="M451.331 498.119L401.69 448.478L451.331 398.838L500.972 448.478L451.331 498.119ZM409.679 448.478L450.76 489.56L491.843 448.478L450.76 407.396L409.679 448.478Z" fill="white"/>
<path d="M451.331 612.236L401.69 562.595L451.331 512.954L500.972 562.595L451.331 612.236ZM409.679 562.595L450.76 603.677L491.843 562.595L450.76 521.513L409.679 562.595Z" fill="white"/>
<path d="M451.331 726.352L401.69 676.711L451.331 627.071L500.972 676.711L451.331 726.352ZM409.679 676.711L450.76 717.793L491.843 676.711L450.76 635.629L409.679 676.711Z" fill="white"/>
<path d="M527.789 99.2814L478.149 49.6408L527.789 0L577.43 49.6408L527.789 99.2814ZM486.707 49.6408L527.789 90.7226L568.871 49.6408L527.789 8.55874L486.707 49.6408Z" fill="white"/>
<path d="M527.789 212.828L478.149 163.187L527.789 113.546L577.43 163.187L527.789 212.828ZM486.707 163.757L527.789 204.839L568.871 163.757L527.789 122.675L486.707 163.757Z" fill="white"/>
<path d="M527.789 326.944L478.149 277.303L527.789 227.663L577.43 277.303L527.789 326.944ZM486.707 277.874L527.789 318.956L568.871 277.874L527.789 236.792L486.707 277.874Z" fill="white"/>
<path d="M527.789 441.061L478.149 391.42L527.789 341.779L577.43 391.42L527.789 441.061ZM486.707 391.42L527.789 432.502L568.871 391.42L527.789 350.338L486.707 391.42Z" fill="white"/>
<path d="M527.789 555.177L478.149 505.537L527.789 455.896L577.43 505.537L527.789 555.177ZM486.707 505.537L527.789 546.619L568.871 505.537L527.789 464.455L486.707 505.537Z" fill="white"/>
<path d="M527.789 669.294L478.149 619.653L527.789 570.012L577.43 619.653L527.789 669.294ZM486.707 619.653L527.789 660.735L568.871 619.653L527.789 578.571L486.707 619.653Z" fill="white"/>
<path d="M610.524 156.34L560.883 106.699L610.524 57.0583L660.165 106.699L610.524 156.34ZM569.442 106.699L610.524 147.781L651.606 106.699L610.524 65.617L569.442 106.699Z" fill="white"/>
<path d="M610.524 269.886L560.883 220.245L610.524 170.604L660.165 220.245L610.524 269.886ZM569.442 220.816L610.524 261.898L651.606 220.816L610.524 179.734L569.442 220.816Z" fill="white"/>
<path d="M610.524 384.003L560.883 334.362L610.524 284.721L660.165 334.362L610.524 384.003ZM569.442 334.932L610.524 376.014L651.606 334.932L610.524 293.85L569.442 334.932Z" fill="white"/>
<path d="M610.524 498.119L560.883 448.478L610.524 398.838L660.165 448.478L610.524 498.119ZM569.442 448.478L610.524 489.56L651.606 448.478L610.524 407.396L569.442 448.478Z" fill="white"/>
<path d="M610.524 612.236L560.883 562.595L610.524 512.954L660.165 562.595L610.524 612.236ZM569.442 562.595L610.524 603.677L651.606 562.595L610.524 521.513L569.442 562.595Z" fill="white"/>
<path d="M610.524 726.352L560.883 676.711L610.524 627.071L660.165 676.711L610.524 726.352ZM569.442 676.711L610.524 717.793L651.606 676.711L610.524 635.629L569.442 676.711Z" fill="white"/>
<path d="M686.982 99.2814L637.341 49.6408L686.982 0L736.622 49.6408L686.982 99.2814ZM645.9 49.6408L686.982 90.7226L728.064 49.6408L686.982 8.55874L645.9 49.6408Z" fill="white"/>
<path d="M686.982 212.828L637.341 163.187L686.982 113.546L736.622 163.187L686.982 212.828ZM645.9 163.757L686.982 204.839L728.064 163.757L686.982 122.675L645.9 163.757Z" fill="white"/>
<path d="M686.982 326.944L637.341 277.303L686.982 227.663L736.622 277.303L686.982 326.944ZM645.9 277.874L686.982 318.956L728.064 277.874L686.982 236.792L645.9 277.874Z" fill="white"/>
<path d="M686.982 441.061L637.341 391.42L686.982 341.779L736.622 391.42L686.982 441.061ZM645.9 391.42L686.982 432.502L728.064 391.42L686.982 350.338L645.9 391.42Z" fill="white"/>
<path d="M686.982 555.177L637.341 505.537L686.982 455.896L736.622 505.537L686.982 555.177ZM645.9 505.537L686.982 546.619L728.064 505.537L686.982 464.455L645.9 505.537Z" fill="white"/>
<path d="M686.982 669.294L637.341 619.653L686.982 570.012L736.622 619.653L686.982 669.294ZM645.9 619.653L686.982 660.735L728.064 619.653L686.982 578.571L645.9 619.653Z" fill="white"/>
<path d="M769.716 156.34L720.076 106.699L769.716 57.0583L819.357 106.699L769.716 156.34ZM728.635 106.699L769.716 147.781L810.798 106.699L769.716 65.617L728.635 106.699Z" fill="white"/>
<path d="M769.716 269.886L720.076 220.245L769.716 170.604L819.357 220.245L769.716 269.886ZM728.635 220.816L769.716 261.898L810.798 220.816L769.716 179.734L728.635 220.816Z" fill="white"/>
<path d="M769.716 384.003L720.076 334.362L769.716 284.721L819.357 334.362L769.716 384.003ZM728.635 334.932L769.716 376.014L810.798 334.932L769.716 293.85L728.635 334.932Z" fill="white"/>
<path d="M769.716 498.119L720.076 448.478L769.716 398.838L819.357 448.478L769.716 498.119ZM728.635 448.478L769.716 489.56L810.798 448.478L769.716 407.396L728.635 448.478Z" fill="white"/>
<path d="M769.716 612.236L720.076 562.595L769.716 512.954L819.357 562.595L769.716 612.236ZM728.635 562.595L769.716 603.677L810.798 562.595L769.716 521.513L728.635 562.595Z" fill="white"/>
<path d="M769.716 726.352L720.076 676.711L769.716 627.071L819.357 676.711L769.716 726.352ZM728.635 676.711L769.716 717.793L810.798 676.711L769.716 635.629L728.635 676.711Z" fill="white"/>
</svg>
