<svg width="590" height="523" viewBox="0 0 590 523" fill="none" xmlns="http://www.w3.org/2000/svg">
<path d="M35.6989 71.3977L0 35.6989L35.6989 0L71.3978 35.6989L35.6989 71.3977ZM6.15497 35.6989L35.6989 65.2427L65.2428 35.6989L35.6989 6.15497L6.15497 35.6989Z" fill="#48494B"/>
<path d="M35.6989 153.054L0 117.355L35.6989 81.656L71.3978 117.355L35.6989 153.054ZM6.15497 117.765L35.6989 147.309L65.2428 117.765L35.6989 88.2214L6.15497 117.765Z" fill="#48494B"/>
<path d="M35.6989 235.12L0 199.421L35.6989 163.722L71.3978 199.421L35.6989 235.12ZM6.15497 199.832L35.6989 229.375L65.2428 199.832L35.6989 170.288L6.15497 199.832Z" fill="#48494B"/>
<path d="M35.6989 317.186L0 281.488L35.6989 245.789L71.3978 281.488L35.6989 317.186ZM6.15497 281.488L35.6989 311.031L65.2428 281.488L35.6989 251.944L6.15497 281.488Z" fill="#48494B"/>
<path d="M35.6989 399.253L0 363.554L35.6989 327.855L71.3978 363.554L35.6989 399.253ZM6.15497 363.554L35.6989 393.098L65.2428 363.554L35.6989 334.01L6.15497 363.554Z" fill="#48494B"/>
<path d="M35.6989 481.319L0 445.62L35.6989 409.921L71.3978 445.62L35.6989 481.319ZM6.15497 445.62L35.6989 475.164L65.2428 445.62L35.6989 416.076L6.15497 445.62Z" fill="#48494B"/>
<path d="M95.1969 112.431L59.498 76.732L95.1969 41.0331L130.896 76.732L95.1969 112.431ZM65.653 76.732L95.1969 106.276L124.741 76.732L95.1969 47.1881L65.653 76.732Z" fill="#48494B"/>
<path d="M95.1969 194.087L59.498 158.388L95.1969 122.689L130.896 158.388L95.1969 194.087ZM65.653 158.798L95.1969 188.342L124.741 158.798L95.1969 129.255L65.653 158.798Z" fill="#48494B"/>
<path d="M95.1969 276.153L59.498 240.454L95.1969 204.756L130.896 240.454L95.1969 276.153ZM65.653 240.865L95.1969 270.409L124.741 240.865L95.1969 211.321L65.653 240.865Z" fill="#48494B"/>
<path d="M95.1969 358.22L59.498 322.521L95.1969 286.822L130.896 322.521L95.1969 358.22ZM65.653 322.521L95.1969 352.065L124.741 322.521L95.1969 292.977L65.653 322.521Z" fill="#48494B"/>
<path d="M95.1969 440.286L59.498 404.587L95.1969 368.888L130.896 404.587L95.1969 440.286ZM65.653 404.587L95.1969 434.131L124.741 404.587L95.1969 375.043L65.653 404.587Z" fill="#48494B"/>
<path d="M95.1969 522.352L59.498 486.653L95.1969 450.954L130.896 486.653L95.1969 522.352ZM65.653 486.653L95.1969 516.197L124.741 486.653L95.1969 457.109L65.653 486.653Z" fill="#48494B"/>
<path d="M150.592 71.3977L114.893 35.6989L150.592 0L186.29 35.6989L150.592 71.3977ZM120.637 35.6989L150.181 65.2427L179.725 35.6989L150.181 6.15497L120.637 35.6989Z" fill="#48494B"/>
<path d="M150.592 153.054L114.893 117.355L150.592 81.656L186.29 117.355L150.592 153.054ZM120.637 117.765L150.181 147.309L179.725 117.765L150.181 88.2214L120.637 117.765Z" fill="#48494B"/>
<path d="M150.592 235.12L114.893 199.421L150.592 163.722L186.29 199.421L150.592 235.12ZM120.637 199.832L150.181 229.375L179.725 199.832L150.181 170.288L120.637 199.832Z" fill="#48494B"/>
<path d="M150.592 317.186L114.893 281.488L150.592 245.789L186.29 281.488L150.592 317.186ZM120.637 281.488L150.181 311.031L179.725 281.488L150.181 251.944L120.637 281.488Z" fill="#48494B"/>
<path d="M150.592 399.253L114.893 363.554L150.592 327.855L186.29 363.554L150.592 399.253ZM120.637 363.554L150.181 393.098L179.725 363.554L150.181 334.01L120.637 363.554Z" fill="#48494B"/>
<path d="M150.592 481.319L114.893 445.62L150.592 409.921L186.29 445.62L150.592 481.319ZM120.637 445.62L150.181 475.164L179.725 445.62L150.181 416.076L120.637 445.62Z" fill="#48494B"/>
<path d="M210.09 112.431L174.391 76.732L210.09 41.0331L245.789 76.732L210.09 112.431ZM180.136 76.732L209.68 106.276L239.223 76.732L209.68 47.1881L180.136 76.732Z" fill="#48494B"/>
<path d="M210.09 194.087L174.391 158.388L210.09 122.689L245.789 158.388L210.09 194.087ZM180.136 158.798L209.68 188.342L239.223 158.798L209.68 129.255L180.136 158.798Z" fill="#48494B"/>
<path d="M210.09 276.153L174.391 240.454L210.09 204.756L245.789 240.454L210.09 276.153ZM180.136 240.865L209.68 270.409L239.223 240.865L209.68 211.321L180.136 240.865Z" fill="#48494B"/>
<path d="M210.09 358.22L174.391 322.521L210.09 286.822L245.789 322.521L210.09 358.22ZM180.136 322.521L209.68 352.065L239.223 322.521L209.68 292.977L180.136 322.521Z" fill="#48494B"/>
<path d="M210.09 440.286L174.391 404.587L210.09 368.888L245.789 404.587L210.09 440.286ZM180.136 404.587L209.68 434.131L239.223 404.587L209.68 375.043L180.136 404.587Z" fill="#48494B"/>
<path d="M210.09 522.352L174.391 486.653L210.09 450.954L245.789 486.653L210.09 522.352ZM180.136 486.653L209.68 516.197L239.223 486.653L209.68 457.109L180.136 486.653Z" fill="#48494B"/>
<path d="M265.074 71.3977L229.375 35.6989L265.074 0L300.773 35.6989L265.074 71.3977ZM235.12 35.6989L264.664 65.2427L294.208 35.6989L264.664 6.15497L235.12 35.6989Z" fill="#48494B"/>
<path d="M265.074 153.054L229.375 117.355L265.074 81.656L300.773 117.355L265.074 153.054ZM235.12 117.765L264.664 147.309L294.208 117.765L264.664 88.2214L235.12 117.765Z" fill="#48494B"/>
<path d="M265.074 235.12L229.375 199.421L265.074 163.722L300.773 199.421L265.074 235.12ZM235.12 199.832L264.664 229.375L294.208 199.832L264.664 170.288L235.12 199.832Z" fill="#48494B"/>
<path d="M265.074 317.186L229.375 281.488L265.074 245.789L300.773 281.488L265.074 317.186ZM235.12 281.488L264.664 311.031L294.208 281.488L264.664 251.944L235.12 281.488Z" fill="#48494B"/>
<path d="M265.074 399.253L229.375 363.554L265.074 327.855L300.773 363.554L265.074 399.253ZM235.12 363.554L264.664 393.098L294.208 363.554L264.664 334.01L235.12 363.554Z" fill="#48494B"/>
<path d="M265.074 481.319L229.375 445.62L265.074 409.921L300.773 445.62L265.074 481.319ZM235.12 445.62L264.664 475.164L294.208 445.62L264.664 416.076L235.12 445.62Z" fill="#48494B"/>
<path d="M324.572 112.431L288.873 76.732L324.572 41.0331L360.271 76.732L324.572 112.431ZM294.618 76.732L324.162 106.276L353.706 76.732L324.162 47.1881L294.618 76.732Z" fill="#48494B"/>
<path d="M324.572 194.087L288.873 158.388L324.572 122.689L360.271 158.388L324.572 194.087ZM294.618 158.798L324.162 188.342L353.706 158.798L324.162 129.255L294.618 158.798Z" fill="#48494B"/>
<path d="M324.572 276.153L288.873 240.454L324.572 204.756L360.271 240.454L324.572 276.153ZM294.618 240.865L324.162 270.409L353.706 240.865L324.162 211.321L294.618 240.865Z" fill="#48494B"/>
<path d="M324.572 358.22L288.873 322.521L324.572 286.822L360.271 322.521L324.572 358.22ZM294.618 322.521L324.162 352.065L353.706 322.521L324.162 292.977L294.618 322.521Z" fill="#48494B"/>
<path d="M324.572 440.286L288.873 404.587L324.572 368.888L360.271 404.587L324.572 440.286ZM294.618 404.587L324.162 434.131L353.706 404.587L324.162 375.043L294.618 404.587Z" fill="#48494B"/>
<path d="M324.572 522.352L288.873 486.653L324.572 450.954L360.271 486.653L324.572 522.352ZM294.618 486.653L324.162 516.197L353.706 486.653L324.162 457.109L294.618 486.653Z" fill="#48494B"/>
<path d="M379.557 71.3977L343.858 35.6989L379.557 0L415.256 35.6989L379.557 71.3977ZM350.013 35.6989L379.557 65.2427L409.101 35.6989L379.557 6.15497L350.013 35.6989Z" fill="#48494B"/>
<path d="M379.557 153.054L343.858 117.355L379.557 81.656L415.256 117.355L379.557 153.054ZM350.013 117.765L379.557 147.309L409.101 117.765L379.557 88.2214L350.013 117.765Z" fill="#48494B"/>
<path d="M379.557 235.12L343.858 199.421L379.557 163.722L415.256 199.421L379.557 235.12ZM350.013 199.832L379.557 229.375L409.101 199.832L379.557 170.288L350.013 199.832Z" fill="#48494B"/>
<path d="M379.557 317.186L343.858 281.488L379.557 245.789L415.256 281.488L379.557 317.186ZM350.013 281.488L379.557 311.031L409.101 281.488L379.557 251.944L350.013 281.488Z" fill="#48494B"/>
<path d="M379.557 399.253L343.858 363.554L379.557 327.855L415.256 363.554L379.557 399.253ZM350.013 363.554L379.557 393.098L409.101 363.554L379.557 334.01L350.013 363.554Z" fill="#48494B"/>
<path d="M379.557 481.319L343.858 445.62L379.557 409.921L415.256 445.62L379.557 481.319ZM350.013 445.62L379.557 475.164L409.101 445.62L379.557 416.076L350.013 445.62Z" fill="#48494B"/>
<path d="M439.055 112.431L403.356 76.732L439.055 41.0331L474.754 76.732L439.055 112.431ZM409.511 76.732L439.055 106.276L468.599 76.732L439.055 47.1881L409.511 76.732Z" fill="#48494B"/>
<path d="M439.055 194.087L403.356 158.388L439.055 122.689L474.754 158.388L439.055 194.087ZM409.511 158.798L439.055 188.342L468.599 158.798L439.055 129.255L409.511 158.798Z" fill="#48494B"/>
<path d="M439.055 276.153L403.356 240.454L439.055 204.756L474.754 240.454L439.055 276.153ZM409.511 240.865L439.055 270.409L468.599 240.865L439.055 211.321L409.511 240.865Z" fill="#48494B"/>
<path d="M439.055 358.22L403.356 322.521L439.055 286.822L474.754 322.521L439.055 358.22ZM409.511 322.521L439.055 352.065L468.599 322.521L439.055 292.977L409.511 322.521Z" fill="#48494B"/>
<path d="M439.055 440.286L403.356 404.587L439.055 368.888L474.754 404.587L439.055 440.286ZM409.511 404.587L439.055 434.131L468.599 404.587L439.055 375.043L409.511 404.587Z" fill="#48494B"/>
<path d="M439.055 522.352L403.356 486.653L439.055 450.954L474.754 486.653L439.055 522.352ZM409.511 486.653L439.055 516.197L468.599 486.653L439.055 457.109L409.511 486.653Z" fill="#48494B"/>
<path d="M494.039 71.3977L458.341 35.6989L494.039 0L529.738 35.6989L494.039 71.3977ZM464.496 35.6989L494.039 65.2427L523.583 35.6989L494.039 6.15497L464.496 35.6989Z" fill="#48494B"/>
<path d="M494.039 153.054L458.341 117.355L494.039 81.656L529.738 117.355L494.039 153.054ZM464.496 117.765L494.039 147.309L523.583 117.765L494.039 88.2214L464.496 117.765Z" fill="#48494B"/>
<path d="M494.039 235.12L458.341 199.421L494.039 163.722L529.738 199.421L494.039 235.12ZM464.496 199.832L494.039 229.375L523.583 199.832L494.039 170.288L464.496 199.832Z" fill="#48494B"/>
<path d="M494.039 317.186L458.341 281.488L494.039 245.789L529.738 281.488L494.039 317.186ZM464.496 281.488L494.039 311.031L523.583 281.488L494.039 251.944L464.496 281.488Z" fill="#48494B"/>
<path d="M494.039 399.253L458.341 363.554L494.039 327.855L529.738 363.554L494.039 399.253ZM464.496 363.554L494.039 393.098L523.583 363.554L494.039 334.01L464.496 363.554Z" fill="#48494B"/>
<path d="M494.039 481.319L458.341 445.62L494.039 409.921L529.738 445.62L494.039 481.319ZM464.496 445.62L494.039 475.164L523.583 445.62L494.039 416.076L464.496 445.62Z" fill="#48494B"/>
<path d="M553.538 112.431L517.839 76.732L553.538 41.0331L589.236 76.732L553.538 112.431ZM523.994 76.732L553.538 106.276L583.081 76.732L553.538 47.1881L523.994 76.732Z" fill="#48494B"/>
<path d="M553.537 194.087L517.839 158.388L553.537 122.689L589.236 158.388L553.537 194.087ZM523.994 158.798L553.537 188.342L583.081 158.798L553.537 129.255L523.994 158.798Z" fill="#48494B"/>
<path d="M553.537 276.153L517.839 240.454L553.537 204.756L589.236 240.454L553.537 276.153ZM523.994 240.865L553.537 270.409L583.081 240.865L553.537 211.321L523.994 240.865Z" fill="#48494B"/>
<path d="M553.537 358.22L517.839 322.521L553.537 286.822L589.236 322.521L553.537 358.22ZM523.994 322.521L553.537 352.065L583.081 322.521L553.537 292.977L523.994 322.521Z" fill="#48494B"/>
<path d="M553.537 440.286L517.839 404.587L553.537 368.888L589.236 404.587L553.537 440.286ZM523.994 404.587L553.537 434.131L583.081 404.587L553.537 375.043L523.994 404.587Z" fill="#48494B"/>
<path d="M553.537 522.352L517.839 486.653L553.537 450.954L589.236 486.653L553.537 522.352ZM523.994 486.653L553.537 516.197L583.081 486.653L553.537 457.109L523.994 486.653Z" fill="#48494B"/>
</svg>
